<?xml version="1.0" encoding="UTF-8" standalone="no"?>
<svg
   xmlns:dc="http://purl.org/dc/elements/1.1/"
   xmlns:cc="http://creativecommons.org/ns#"
   xmlns:rdf="http://www.w3.org/1999/02/22-rdf-syntax-ns#"
   xmlns:svg="http://www.w3.org/2000/svg"
   xmlns="http://www.w3.org/2000/svg"
   width="473.61823mm"
   height="103.70058mm"
   viewBox="0 0 473.61824 103.70058"
   version="1.1"
   id="svg909">
  <defs
     id="defs903" />
  <metadata
     id="metadata906">
    <rdf:RDF>
      <cc:Work
         rdf:about="">
        <dc:format>image/svg+xml</dc:format>
        <dc:type
           rdf:resource="http://purl.org/dc/dcmitype/StillImage" />
        <dc:title></dc:title>
      </cc:Work>
    </rdf:RDF>
  </metadata>
  <g
     id="layer1"
     transform="translate(-32.104576,-94.651009)">
    <rect
       style="fill:#3730a3;fill-opacity:1;stroke-width:2.425;stroke-linecap:round"
       id="rect1498"
       width="103.70058"
       height="103.70058"
       x="32.104576"
       y="94.651009"
       ry="7.6461258" />
    <g
       id="g872"
       transform="matrix(0.12212191,0.03812274,-0.03619519,0.12862544,31.721449,102.76416)"
       style="fill:#ffffff;fill-opacity:1;stroke:none;stroke-opacity:1">
      <path
         fill="#61dafb"
         d="m 666.3,296.5 c 0,-32.5 -40.7,-63.3 -103.1,-82.4 14.4,-63.6 8,-114.2 -20.2,-130.4 -6.5,-3.8 -14.1,-5.6 -22.4,-5.6 v 22.3 c 4.6,0 8.3,0.9 11.4,2.6 13.6,7.8 19.5,37.5 14.9,75.7 -1.1,9.4 -2.9,19.3 -5.1,29.4 -19.6,-4.8 -41,-8.5 -63.5,-10.9 -13.5,-18.5 -27.5,-35.3 -41.6,-50 32.6,-30.3 63.2,-46.9 84,-46.9 V 78 c 0,0 0,0 0,0 -27.5,0 -63.5,19.6 -99.9,53.6 C 384.4,97.8 348.4,78.4 320.9,78.4 v 22.3 c 20.7,0 51.4,16.5 84,46.6 -14,14.7 -28,31.4 -41.3,49.9 -22.6,2.4 -44,6.1 -63.6,11 -2.3,-10 -4,-19.7 -5.2,-29 -4.7,-38.2 1.1,-67.9 14.6,-75.8 3,-1.8 6.9,-2.6 11.5,-2.6 V 78.5 c 0,0 0,0 0,0 -8.4,0 -16,1.8 -22.6,5.6 -28.1,16.2 -34.4,66.7 -19.9,130.1 -62.2,19.2 -102.7,49.9 -102.7,82.3 0,32.5 40.7,63.3 103.1,82.4 -14.4,63.6 -8,114.2 20.2,130.4 6.5,3.8 14.1,5.6 22.5,5.6 27.5,0 63.5,-19.6 99.9,-53.6 36.4,33.8 72.4,53.2 99.9,53.2 8.4,0 16,-1.8 22.6,-5.6 28.1,-16.2 34.4,-66.7 19.9,-130.1 62,-19.1 102.5,-49.9 102.5,-82.3 z M 536.1,229.8 c -3.7,12.9 -8.3,26.2 -13.5,39.5 -4.1,-8 -8.4,-16 -13.1,-24 -4.6,-8 -9.5,-15.8 -14.4,-23.4 14.2,2.1 27.9,4.7 41,7.9 z m -45.8,106.5 c -7.8,13.5 -15.8,26.3 -24.1,38.2 -14.9,1.3 -30,2 -45.2,2 -15.1,0 -30.2,-0.7 -45,-1.9 -8.3,-11.9 -16.4,-24.6 -24.2,-38 -7.6,-13.1 -14.5,-26.4 -20.8,-39.8 6.2,-13.4 13.2,-26.8 20.7,-39.9 7.8,-13.5 15.8,-26.3 24.1,-38.2 14.9,-1.3 30,-2 45.2,-2 15.1,0 30.2,0.7 45,1.9 8.3,11.9 16.4,24.6 24.2,38 7.6,13.1 14.5,26.4 20.8,39.8 -6.3,13.4 -13.2,26.8 -20.7,39.9 z m 32.3,-13 c 5.4,13.4 10,26.8 13.8,39.8 -13.1,3.2 -26.9,5.9 -41.2,8 4.9,-7.7 9.8,-15.6 14.4,-23.7 4.6,-8 8.9,-16.1 13,-24.1 z M 421.2,430 c -9.3,-9.6 -18.6,-20.3 -27.8,-32 9,0.4 18.2,0.7 27.5,0.7 9.4,0 18.7,-0.2 27.8,-0.7 -9,11.7 -18.3,22.4 -27.5,32 z m -74.4,-58.9 c -14.2,-2.1 -27.9,-4.7 -41,-7.9 3.7,-12.9 8.3,-26.2 13.5,-39.5 4.1,8 8.4,16 13.1,24 4.7,8 9.5,15.8 14.4,23.4 z M 420.7,163 c 9.3,9.6 18.6,20.3 27.8,32 -9,-0.4 -18.2,-0.7 -27.5,-0.7 -9.4,0 -18.7,0.2 -27.8,0.7 9,-11.7 18.3,-22.4 27.5,-32 z m -74,58.9 c -4.9,7.7 -9.8,15.6 -14.4,23.7 -4.6,8 -8.9,16 -13,24 -5.4,-13.4 -10,-26.8 -13.8,-39.8 13.1,-3.1 26.9,-5.8 41.2,-7.9 z m -90.5,125.2 c -35.4,-15.1 -58.3,-34.9 -58.3,-50.6 0,-15.7 22.9,-35.6 58.3,-50.6 8.6,-3.7 18,-7 27.7,-10.1 5.7,19.6 13.2,40 22.5,60.9 -9.2,20.8 -16.6,41.1 -22.2,60.6 -9.9,-3.1 -19.3,-6.5 -28,-10.2 z M 310,490 c -13.6,-7.8 -19.5,-37.5 -14.9,-75.7 1.1,-9.4 2.9,-19.3 5.1,-29.4 19.6,4.8 41,8.5 63.5,10.9 13.5,18.5 27.5,35.3 41.6,50 -32.6,30.3 -63.2,46.9 -84,46.9 -4.5,-0.1 -8.3,-1 -11.3,-2.7 z m 237.2,-76.2 c 4.7,38.2 -1.1,67.9 -14.6,75.8 -3,1.8 -6.9,2.6 -11.5,2.6 -20.7,0 -51.4,-16.5 -84,-46.6 14,-14.7 28,-31.4 41.3,-49.9 22.6,-2.4 44,-6.1 63.6,-11 2.3,10.1 4.1,19.8 5.2,29.1 z m 38.5,-66.7 c -8.6,3.7 -18,7 -27.7,10.1 -5.7,-19.6 -13.2,-40 -22.5,-60.9 9.2,-20.8 16.6,-41.1 22.2,-60.6 9.9,3.1 19.3,6.5 28.1,10.2 35.4,15.1 58.3,34.9 58.3,50.6 -0.1,15.7 -23,35.6 -58.4,50.6 z"
         id="path833"
         style="fill:#ffffff;fill-opacity:1;stroke:none;stroke-opacity:1" />
      <polygon
         fill="#61dafb"
         points=""
         id="polygon835"
         style="fill:#ffffff;fill-opacity:1;stroke:none;stroke-opacity:1" />
      <path
         id="circle837"
         style="fill:#ffffff;fill-opacity:1;stroke:none;stroke-opacity:1"
         d="m 466.59999,296.5 a 45.700001,45.700001 0 0 1 -45.7,45.7 45.700001,45.700001 0 0 1 -45.7,-45.7 45.700001,45.700001 0 0 1 45.7,-45.7 45.700001,45.700001 0 0 1 45.7,45.7 z" />
      <polygon
         fill="#61dafb"
         points=""
         id="polygon839"
         style="fill:#ffffff;fill-opacity:1;stroke:none;stroke-opacity:1" />
    </g>
    <path
       d="m 114.98479,119.67407 c -2.84473,1.9563 -3.05814,6.4391 -3.75024,9.69071 -1.05255,5.00436 -1.96387,10.75078 -6.50359,13.62785 -7.411091,4.69837 -17.997081,-1.24533 -19.042561,-10.02251 -0.57417,-4.87055 2.91907,-11.18529 7.80288,-12.26895 2.14418,-0.47719 2.68413,-0.57512 1.06195,1.11273 -1.27078,1.32657 -2.46168,2.79889 -3.2739,4.37477 -0.25667,0.5074 -0.1904,1.27057 -0.62879,0.4245 -0.3004,-0.56553 -0.46914,-1.02651 -0.93599,-0.23209 -5.25968,8.86319 5.66975,19.29604 13.646911,14.23655 3.76634,-2.39078 4.43397,-7.74491 5.30304,-11.85715 0.88914,-4.20595 1.22439,-8.89374 4.88223,-11.40249 0.1776,-0.13148 0.56641,-0.37863 0.95767,-0.64963 0.51056,-0.34747 0.48733,-0.42064 0.74697,-0.96883 0.79904,-1.68706 2.73897,-2.37581 4.34073,-1.53422 1.60175,0.84159 2.2525,2.89154 1.45347,4.57859 -0.95684,2.02022 -3.51234,2.48049 -5.06194,1.00728 -0.54084,-0.50942 -0.34019,-0.56828 -0.99884,-0.11711 z m 3.82133,-3.80929 c -0.73171,-0.38445 -1.61381,-0.0679 -1.97882,0.70277 -0.36166,0.76359 -0.0708,1.6964 0.6605,2.08067 0.73171,0.38445 1.62089,0.0716 1.98255,-0.69197 0.36501,-0.77067 0.0671,-1.7072 -0.66423,-2.09147 z"
       fill="#434a54"
       id="path886"
       style="fill:#ffffff;fill-opacity:1;stroke:none;stroke-width:0.405797;stroke-opacity:1" />
    <path
       style="fill:none;stroke:#ffffff;stroke-width:1.99685;stroke-linecap:butt;stroke-linejoin:miter;stroke-miterlimit:4;stroke-dasharray:none;stroke-opacity:1"
       d="m 139.31433,101.07082 -19.97904,15.15544 v 0"
       id="path1056" />
    <g
       aria-label="useEffect.dev"
       id="text2130"
       style="font-size:50.8px;line-height:1.25;font-family:futura;-inkscape-font-specification:futura;letter-spacing:-3.96875px;stroke-width:0.264583">
      <path
         d="m 175.58315,171.06356 q -4.826,0 -7.7216,-2.8956 -2.8956,-2.8956 -2.8956,-7.7724 v -17.78 h 4.572 v 17.78 q 0,3.1496 1.5748,4.9276 1.6256,1.7272 4.4704,1.7272 2.8956,0 4.5212,-1.7272 1.6256,-1.778 1.6256,-4.9276 v -17.78 h 4.572 v 17.78 q 0,4.8768 -2.9464,7.7724 -2.8956,2.8956 -7.7724,2.8956 z"
         style="font-style:normal;font-variant:normal;font-weight:normal;font-stretch:normal;font-size:50.8px;font-family:'JetBrains Mono';-inkscape-font-specification:'JetBrains Mono';fill:#3730a3;fill-opacity:1"
         id="path2389" />
      <path
         d="m 201.00776,171.06356 q -4.2672,0 -6.858,-1.9812 -2.54,-1.9812 -2.9464,-5.3848 h 4.572 q 0.3048,1.524 1.6764,2.4384 1.3716,0.8636 3.556,0.8636 h 2.1336 q 2.6416,0 3.9624,-1.1176 1.3716,-1.1176 1.3716,-2.9972 0,-3.4544 -4.7244,-4.2164 l -3.7592,-0.6096 q -4.1656,-0.6604 -6.1468,-2.54 -1.9812,-1.9304 -1.9812,-5.4356 0,-3.81 2.4384,-5.8928 2.4384,-2.0828 7.112,-2.0828 h 1.9304 q 3.9624,0 6.4008,1.9304 2.4892,1.8796 2.9972,5.1308 h -4.572 q -0.3048,-1.3716 -1.5748,-2.1844 -1.27,-0.8128 -3.2512,-0.8128 h -1.9304 q -4.9784,0 -4.9784,3.9624 0,1.6764 0.9652,2.54 1.016,0.8128 3.2512,1.1684 l 3.7592,0.6096 q 4.5212,0.7112 6.5532,2.6416 2.0828,1.9304 2.0828,5.588 0,3.9624 -2.54,6.1976 -2.4892,2.1844 -7.366,2.1844 z"
         style="font-style:normal;font-variant:normal;font-weight:normal;font-stretch:normal;font-size:50.8px;font-family:'JetBrains Mono';-inkscape-font-specification:'JetBrains Mono';fill:#3730a3;fill-opacity:1"
         id="path2391" />
      <path
         d="m 239.38636,157.70316 h -17.0688 v 2.6924 q 0,3.3528 1.5748,5.08 1.6256,1.7272 4.7244,1.7272 5.334,0 6.096,-3.7592 h 4.572 q -0.4572,3.5052 -3.3528,5.588 -2.8956,2.032 -7.3152,2.032 -4.9276,0 -7.874,-2.8956 -2.8956,-2.8956 -2.8956,-7.7724 v -7.62 q 0,-4.8768 2.8956,-7.7724 2.9464,-2.8956 7.874,-2.8956 4.9276,0 7.8232,2.8956 2.9464,2.8956 2.9464,7.7724 z m -17.0688,-3.4544 h 12.5984 v -1.4732 q 0,-3.3528 -1.6256,-5.08 -1.5748,-1.778 -4.6736,-1.778 -3.0988,0 -4.7244,1.778 -1.5748,1.7272 -1.5748,5.08 z"
         style="font-style:normal;font-variant:normal;font-weight:normal;font-stretch:normal;font-size:50.8px;font-family:'JetBrains Mono';-inkscape-font-specification:'JetBrains Mono';fill:#3730a3;fill-opacity:1"
         id="path2393" />
      <path
         d="m 266.28416,170.55556 h -21.336 v -37.084 h 21.336 v 4.1148 h -16.8148 v 11.5316 h 15.0368 v 4.1148 h -15.0368 v 13.208 h 16.8148 z"
         style="font-style:normal;font-variant:normal;font-weight:normal;font-stretch:normal;font-size:50.8px;font-family:'JetBrains Mono';-inkscape-font-specification:'JetBrains Mono';fill:#3730a3;fill-opacity:1"
         id="path2395" />
      <path
         d="m 277.53557,170.55556 v -23.2156 h -8.128 v -4.1656 h 8.128 v -2.6924 q 0,-3.2512 1.9812,-5.1308 1.9812,-1.8796 5.3848,-1.8796 h 8.636 v 4.1656 h -8.636 q -1.3208,0 -2.0828,0.762 -0.7112,0.7112 -0.7112,2.032 v 2.7432 h 11.43 v 4.1656 h -11.43 v 23.2156 z"
         style="font-style:normal;font-variant:normal;font-weight:normal;font-stretch:normal;font-size:50.8px;font-family:'JetBrains Mono';-inkscape-font-specification:'JetBrains Mono';fill:#3730a3;fill-opacity:1"
         id="path2397" />
      <path
         d="m 304.02698,170.55556 v -23.2156 h -8.128 v -4.1656 h 8.128 v -2.6924 q 0,-3.2512 1.9812,-5.1308 1.9812,-1.8796 5.3848,-1.8796 h 8.636 v 4.1656 h -8.636 q -1.3208,0 -2.0828,0.762 -0.7112,0.7112 -0.7112,2.032 v 2.7432 h 11.43 v 4.1656 h -11.43 v 23.2156 z"
         style="font-style:normal;font-variant:normal;font-weight:normal;font-stretch:normal;font-size:50.8px;font-family:'JetBrains Mono';-inkscape-font-specification:'JetBrains Mono';fill:#3730a3;fill-opacity:1"
         id="path2399" />
      <path
         d="m 345.35198,157.70316 h -17.0688 v 2.6924 q 0,3.3528 1.5748,5.08 1.6256,1.7272 4.7244,1.7272 5.334,0 6.096,-3.7592 h 4.572 q -0.4572,3.5052 -3.3528,5.588 -2.8956,2.032 -7.3152,2.032 -4.9276,0 -7.874,-2.8956 -2.8956,-2.8956 -2.8956,-7.7724 v -7.62 q 0,-4.8768 2.8956,-7.7724 2.9464,-2.8956 7.874,-2.8956 4.9276,0 7.8232,2.8956 2.9464,2.8956 2.9464,7.7724 z m -17.0688,-3.4544 h 12.5984 v -1.4732 q 0,-3.3528 -1.6256,-5.08 -1.5748,-1.778 -4.6736,-1.778 -3.0988,0 -4.7244,1.778 -1.5748,1.7272 -1.5748,5.08 z"
         style="font-style:normal;font-variant:normal;font-weight:normal;font-stretch:normal;font-size:50.8px;font-family:'JetBrains Mono';-inkscape-font-specification:'JetBrains Mono';fill:#3730a3;fill-opacity:1"
         id="path2401" />
      <path
         d="m 361.27699,171.06356 q -5.08,0 -8.0264,-2.8448 -2.9464,-2.8448 -2.9464,-7.8232 v -7.62 q 0,-4.9784 2.9464,-7.8232 2.9464,-2.8448 8.0264,-2.8448 4.826,0 7.7724,2.5908 2.9464,2.5908 3.0988,7.0612 h -4.572 q -0.1524,-2.6416 -1.8288,-4.1148 -1.6256,-1.4732 -4.4704,-1.4732 -2.9972,0 -4.7244,1.7272 -1.6764,1.7272 -1.6764,4.826 v 7.6708 q 0,3.1496 1.6764,4.8768 1.6764,1.7272 4.7244,1.7272 2.8448,0 4.4704,-1.4732 1.6764,-1.4732 1.8288,-4.1148 h 4.572 q -0.1524,4.4704 -3.0988,7.0612 -2.9464,2.5908 -7.7724,2.5908 z"
         style="font-style:normal;font-variant:normal;font-weight:normal;font-stretch:normal;font-size:50.8px;font-family:'JetBrains Mono';-inkscape-font-specification:'JetBrains Mono';fill:#3730a3;fill-opacity:1"
         id="path2403" />
      <path
         d="m 390.6132,170.55556 q -3.6068,0 -5.6388,-1.9304 -1.9812,-1.9304 -1.9812,-5.4356 v -16.4084 h -7.874 v -4.1656 h 7.874 v -7.62 h 4.572 v 7.62 h 11.17599 v 4.1656 H 387.5652 v 16.4084 q 0,1.6256 0.7112,2.4384 0.762,0.762 2.3368,0.762 h 7.61999 v 4.1656 z"
         style="font-style:normal;font-variant:normal;font-weight:normal;font-stretch:normal;font-size:50.8px;font-family:'JetBrains Mono';-inkscape-font-specification:'JetBrains Mono';fill:#3730a3;fill-opacity:1"
         id="path2405" />
      <path
         d="m 413.5486,171.06356 q -1.6256,0 -2.7432,-1.1684 -1.0668,-1.1684 -1.0668,-2.8956 0,-1.7272 1.0668,-2.8956 1.1176,-1.1684 2.7432,-1.1684 h 1.016 q 1.6256,0 2.6924,1.1684 1.1176,1.1684 1.1176,2.8956 0,1.7272 -1.1176,2.8956 -1.0668,1.1684 -2.6924,1.1684 z"
         style="font-style:normal;font-variant:normal;font-weight:normal;font-stretch:normal;font-size:50.8px;font-family:'JetBrains Mono';-inkscape-font-specification:'JetBrains Mono';fill:#6b7280;fill-opacity:1"
         id="path2407" />
      <path
         d="m 446.54241,133.47156 h 4.572 v 37.084 h -4.572 v -5.334 h -0.0508 q -0.3556,2.7432 -2.3876,4.318 -2.032,1.524 -5.1816,1.524 -4.2164,0 -6.7056,-2.794 -2.4384,-2.794 -2.4384,-7.5692 v -8.1788 q 0,-4.826 2.4384,-7.62 2.4892,-2.794 6.7056,-2.794 3.0988,0 5.1308,1.5748 2.032,1.5748 2.4384,4.2672 h 0.1524 l -0.1016,-6.35 z m 0,19.304 q 0,-3.1496 -1.6256,-4.9276 -1.6256,-1.778 -4.4704,-1.778 -2.8956,0 -4.5212,1.778 -1.5748,1.7272 -1.5748,4.9276 v 7.62 q 0,3.2004 1.5748,4.9784 1.6256,1.7272 4.5212,1.7272 2.8448,0 4.4704,-1.778 1.6256,-1.778 1.6256,-4.9276 z"
         style="font-style:normal;font-variant:normal;font-weight:normal;font-stretch:normal;font-size:50.8px;font-family:'JetBrains Mono';-inkscape-font-specification:'JetBrains Mono';fill:#6b7280;fill-opacity:1"
         id="path2409" />
      <path
         d="m 477.80901,157.70316 h -17.0688 v 2.6924 q 0,3.3528 1.5748,5.08 1.6256,1.7272 4.7244,1.7272 5.334,0 6.096,-3.7592 h 4.572 q -0.4572,3.5052 -3.3528,5.588 -2.8956,2.032 -7.3152,2.032 -4.9276,0 -7.874,-2.8956 -2.8956,-2.8956 -2.8956,-7.7724 v -7.62 q 0,-4.8768 2.8956,-7.7724 2.9464,-2.8956 7.874,-2.8956 4.9276,0 7.8232,2.8956 2.9464,2.8956 2.9464,7.7724 z m -17.0688,-3.4544 h 12.5984 v -1.4732 q 0,-3.3528 -1.6256,-5.08 -1.5748,-1.778 -4.6736,-1.778 -3.0988,0 -4.7244,1.778 -1.5748,1.7272 -1.5748,5.08 z"
         style="font-style:normal;font-variant:normal;font-weight:normal;font-stretch:normal;font-size:50.8px;font-family:'JetBrains Mono';-inkscape-font-specification:'JetBrains Mono';fill:#6b7280;fill-opacity:1"
         id="path2411" />
      <path
         d="m 490.432,170.55556 -9.0932,-27.94 h 4.6736 l 5.9436,18.796 q 0.9144,2.8956 1.6764,5.6388 0.762,-2.7432 1.6764,-5.6388 l 5.7912,-18.796 h 4.6228 l -9.0932,27.94 z"
         style="font-style:normal;font-variant:normal;font-weight:normal;font-stretch:normal;font-size:50.8px;font-family:'JetBrains Mono';-inkscape-font-specification:'JetBrains Mono';fill:#6b7280;fill-opacity:1"
         id="path2413" />
    </g>
  </g>
</svg>
