<?xml version="1.0" encoding="UTF-8" standalone="no"?>
<svg xmlns:dc="http://purl.org/dc/elements/1.1/" xmlns:cc="http://creativecommons.org/ns#" xmlns:rdf="http://www.w3.org/1999/02/22-rdf-syntax-ns#" xmlns:svg="http://www.w3.org/2000/svg" xmlns="http://www.w3.org/2000/svg" xmlns:sodipodi="http://sodipodi.sourceforge.net/DTD/sodipodi-0.dtd" xmlns:inkscape="http://www.inkscape.org/namespaces/inkscape" inkscape:version="1.0 (4035a4f, 2020-05-01)" sodipodi:docname="logo.svg" xml:space="preserve" width="128px" viewBox="0 0 128 128" version="1.1" id="Layer_1" height="128px" enable-background="new 0 0 128 128">
   <g style="fill: rgb(236, 201, 75)" transform="matrix(0.89820472,0,0,0.89820472,6.5138919,3.2573409)">
      <path d="m 91.188,65.476 c 2.573,0.277 4.131,2.519 6.712,6.23 0.769,1.105 4.185,5.767 4.886,6.658 0,0 -1.689,-15.467 -2.011,-19.206 -0.312,-3.609 0.089,-8.684 0.089,-8.684 L 102.761,8.275 C 103.315,2.582 99.694,0.28 96.72,0.035 92.652,-0.3 88.682,1.643 88.263,7.261 l -5.159,46.048 1.488,11.285 c 2.442,0.361 4.706,0.677 6.596,0.882 z" />
      <path d="m 66.028,62.229 c 3.104,0.132 7.874,0.767 15.284,1.878 0.065,0.01 0.129,0.019 0.193,0.029 L 79.74,50.745 c -0.423,-3.334 -3.455,-5.843 -7.056,-5.843 -0.308,0 -0.619,0.019 -0.927,0.056 l -0.718,0.088 c -1.892,0.23 -3.549,1.147 -4.667,2.583 -1.26,1.617 -1.767,3.729 -1.465,6.108 z" />
      <path d="m 50.325,83.187 c 0.421,3.326 3.452,5.834 7.051,5.834 0.309,0 0.622,-0.019 0.931,-0.057 l 0.718,-0.088 c 1.893,-0.229 3.551,-1.146 4.668,-2.582 1.116,-1.432 1.636,-3.255 1.53,-5.307 -2.33,-1.823 -3.697,-3.669 -4.407,-4.835 -3.464,-5.688 -1.555,-11.296 0.237,-13.034 0.392,-0.379 0.973,-0.639 1.836,-0.784 l -0.683,-5.39 c -0.421,-3.327 -3.453,-5.835 -7.053,-5.835 -0.308,0 -0.619,0.019 -0.927,0.057 l -0.722,0.087 c -1.89,0.23 -3.546,1.147 -4.665,2.583 -1.214,1.559 -1.72,3.581 -1.484,5.856 0.01,0.085 2.97,23.495 2.97,23.495 z" />
      <path d="M 87.132,124.24 C 82.572,126.836 75.68,128 69.661,128 50.563,128 39.228,115.87 35.758,106.504 32.287,97.136 31.225,88.577 30.407,73.21 30.235,69.977 21.905,23.758 21.905,23.758 c -1.036,-5.478 0.923,-8.925 5.145,-9.77 5.489,-1.098 8.131,2.77 9.311,7.217 l 7.954,38.062 c 0.017,0.35 3.035,24.297 3.035,24.297 0.61,4.821 4.921,8.457 10.027,8.457 0.429,0 0.864,-0.026 1.294,-0.078 l 0.718,-0.088 c 2.69,-0.327 5.06,-1.646 6.673,-3.717 1.147,-1.473 1.847,-3.27 2.081,-5.225 2.765,1.549 6.392,2.879 11.141,3.467 0.05,0.862 0.246,1.674 0.459,2.326 -2.898,1.355 -9.397,4.979 -11.755,11.1 -0.298,0.773 0.087,1.642 0.86,1.938 0.447,0.173 0.923,0.111 1.304,-0.116 0.279,-0.166 0.509,-0.418 0.635,-0.744 2.52,-6.542 11.338,-9.944 11.427,-9.979 0.401,-0.152 0.72,-0.469 0.872,-0.87 0.152,-0.401 0.127,-0.85 -0.073,-1.229 -0.26,-0.497 -0.944,-2.198 -0.682,-3.463 0.087,-0.419 -0.01,-0.855 -0.265,-1.199 -0.256,-0.344 -0.646,-0.562 -1.073,-0.6 -0.092,-0.008 -0.174,-0.022 -0.264,-0.03 -1.067,-0.102 -2.065,-0.246 -3.015,-0.419 -4.276,-0.778 -10.346,-4.236 -10.665,-4.488 -0.226,-0.177 -3.38,-3.541 -3.668,-4.015 -2.505,-4.113 -1.275,-8.17 -0.311,-9.243 0.008,-0.003 0.206,-0.181 0.791,-0.208 4.328,-0.203 25.29,3.132 27.007,3.317 1.214,0.131 2.549,2.052 4.571,4.96 0.782,1.126 7.636,10.109 7.972,10.531 1.639,2.061 2.835,3.693 2.911,4.666 0.349,4.491 -1.192,10.084 -5.153,18.701 -0.004,0.008 -0.007,0.016 -0.011,0.023 -3.196,6.947 -8.116,13.537 -14.026,16.901 z" />
   </g>
</svg>
